# xmcd
#
# Track frame offsets:
#	150
#	15167
#	25217
#	38872
#	51264
#	62816
#	75652
#	85812
#	96201
#	108496
#	120467
#	132984
#	145040
#	160366
#
# Disc length: 2357 seconds
#
# Revision: 1
# Processed by: cddbd v1.5.2PL0 Copyright (c) Steve Scherf et al.
# Submitted via: audiograbber 1.83.01
#
DISCID=af09330e
DTITLE=Various Artist - ‹ 50 Party -Zwei Kleine Italiener CD2
DYEAR=1900
DGENRE=Schlager/D
TTITLE0=Drafi Deutscher - Marmor Stein Und Eisen Bricht (Radio Edit)
TTITLE1=Siw Malmkvist - Harlekin
TTITLE2=Ivo Robic - Mit 17 F‰ngt Das Leben Erst An (Save The Last Dance For Me)
TTITLE3=Mona and Die Falschen 50er - Zwei Kleine Italiener
TTITLE4=Camillo Felgen - Sag Warum
TTITLE5=Marion Maerz - Er Ist Wieder Da
TTITLE6=Graham Bonney - Siebenmeilenstiefel
TTITLE7=Peter Beil - Hello, Nary-Lou
TTITLE8=Eric Silvester - Susanna
TTITLE9=Peter Kraus - Schwarze Rose, Rosemarie
TTITLE10=Ray Miller - Gina Mit Dem Roten Haar
TTITLE11=Ted Herold - Moonlight
TTITLE12=Anna-Lena  - Dein Herz Das Muﬂ Aus Gold Sein
TTITLE13=Roland W. - Roland W. Monja
EXTD=Misc -No Blues
EXTT0=
EXTT1=
EXTT2=
EXTT3=
EXTT4=
EXTT5=
EXTT6=
EXTT7=
EXTT8=
EXTT9=
EXTT10=
EXTT11=
EXTT12=
EXTT13=
PLAYORDER=
